<svg width="6.2633mm" height="3.6691mm" version="1.1" viewBox="0 0 6.2633 3.6691" xmlns="http://www.w3.org/2000/svg">
 <g transform="translate(293.54 -194.63)">
  <g transform="matrix(.26458 0 0 .26458 -293.58 193.29)" display="block">
   <path d="m4.54 9.46-2.35-2.36a6.93 6.93 0 0 0 0 9.79l2.36-2.36a3.59 3.59 0 0 1-0.01-5.07z" fill="#e8710a"/>
   <path d="m2.19 7.1 2.35 2.36c1.4023-1.404 3.6777-1.404 5.08 0l1.71-2.93-0.1-0.08c-2.757-2.0569-6.6056-1.7802-9.04 0.65zm7.43 7.44c-1.4023 1.404-3.6677 1.394-5.07-0.01l-2.36 2.36c2.4287 2.4077 6.2506 2.6937 9 0.66l0.11-0.09m0.7-10.36c-2.6993 2.7051-2.6993 7.0849 0 9.79l2.36-2.36c-3.3867-3.3867 1.7133-8.4567 5.1-5.07l2.35-2.36c-2.7074-2.7127-7.1026-2.7127-9.81 0z" fill="#f9ab00"/>
   <path d="m21.81 7.1-2.35 2.36c3.3867 3.3867-1.7133 8.4567-5.1 5.07l-2.36 2.36c2.7062 2.7087 7.0959 2.7208 9.8047 0.01475 2.7089-2.7061 2.7112-7.0958 0.005252-9.8048z" fill="#e8710a"/>
  </g>
 </g>
</svg>
