<svg xmlns="http://www.w3.org/2000/svg" viewBox="0 0 6.2633 3.6691"><g display="block"><path fill="#E8710A" d="M1.1612 1.163L.5394.5384a1.8335 1.8335 0 000 2.5903l.6244-.6245a.9498.9498 0 01-.0026-1.3414z"/><path fill="#F9AB00" d="M.5394.5385l.6218.6244a.9498.9498 0 011.344 0l.4525-.7752-.0265-.0212c-.7294-.5442-1.7477-.471-2.3918.172zM2.5053 2.507c-.371.3715-.9704.3688-1.3415-.0027l-.6244.6245c.6426.637 1.6538.7127 2.3813.1746l.029-.0238M3.135.5386c-.7142.7156-.7142 1.8744 0 2.5902l.6244-.6245c-.896-.896.4533-2.2374 1.3493-1.3414l.6218-.6244c-.7163-.7177-1.8792-.7177-2.5955 0z"/><path fill="#e8710a" d="M5.7305.5385l-.6218.6244c.896.896-.4533 2.2375-1.3493 1.3414l-.6244.6245c.716.7166 1.8774.7198 2.594.0039.7168-.716.7174-1.8774.0015-2.5942z"/></g></svg>