<svg xmlns="http://www.w3.org/2000/svg" viewBox="0 0 10.912 3.5272">
  <defs/>
  <path fill="#fecb16" d="M1.76 0C.78602 0-.0036.78957-.0036 1.7636c0 .97398.78957 1.7636 1.7636 1.7636.97396 0 1.7636-.78964 1.7636-1.7636S2.73395 0 1.76 0zm2.5288.46398c-.0656 0-.12153.0243-.16529.0681-.0438.0462-.0657.10212-.0657.16532 0 .0656.0219.12153.0657.16529.0438.0438.0996.0657.16529.0657.0632 0 .11913-.0219.16532-.0657.0438-.0438.0681-.0996.0681-.16529 0-.0632-.0243-.11913-.0681-.16532-.0462-.0438-.10211-.0681-.16532-.0681zm.42542.11185v1.6214h.45948v-.61992h.54697V1.1762H5.1737V.97687h.56401V.57576zm-3.4867.32269c.11346 0 .18313.13964.18313.31197 0 .17224-.0696.31184-.18313.31184-.11532 0-.18312-.13959-.18312-.31184 0-.17234.0679-.31197.18312-.31197zm1.0648 0c.11346 0 .18313.13964.18313.31197 0 .17224-.0696.31184-.18313.31184-.11531 0-.18312-.13959-.18312-.31184 0-.17234.0678-.31197.18312-.31197zm5.6721.0954c-.0754 0-.14343.017-.20664.051-.0632.034-.11184.0705-.14102.11429v-.13617h-.41084v1.1742h.41084V1.4582c.0389-.0681.0875-.10209.15071-.10209.0778 0 .11913.0438.11913.13129v.70985h.41084v-.88003c0-.0973-.0292-.17506-.0827-.23341-.0559-.0583-.13854-.0899-.25037-.0899zm1.3006 0c-.0754 0-.14343.017-.20664.051-.0632.034-.11183.0705-.14101.11429v-.13617h-.41084v1.1742h.41084V1.4582c.0389-.0681.0875-.10209.15071-.10209.0778 0 .11913.0438.11913.13129v.70985h.41084v-.88003c0-.0973-.0292-.17506-.0827-.23341-.0559-.0584-.13854-.0899-.25037-.0899zm-5.1805.0292v1.1742h.41082v-1.1742zm1.8232 0v.88246c0 .0972.0267.17502.0827.23337.0535.0583.13858.0875.25041.0875.0729 0 .141-.0146.20421-.0486.0632-.0316.10937-.0705.1434-.11425v.13371h.41085v-1.1742h-.41085v.73903c-.0413.0681-.0924.10212-.1507.10212-.0802 0-.11913-.0413-.11913-.12885v-.71229zm3.7679 0l.40601 1.1961-.0146.0413c-.0146.034-.0559.051-.12402.051-.0292 0-.0534-.005-.0705-.017l-.0583.35981c.0389.0146.0924.0194.16529.0194.12641 0 .22609-.0243.30146-.0705.0754-.0438.13373-.12885.17748-.25526l.44974-1.3249h-.43273l-.18475.68069-.1799-.68066zm-8.9726 1.0483a.074864.074864 0 01.0663.0408 1.1078 1.1078 0 00.98986.60547c.41934 0 .79854-.23198.98986-.60547a.074864.074864 0 01.13323.0683 1.2569 1.2569 0 01-1.1231.68702 1.2569 1.2569 0 01-1.1231-.68702.074864.074864 0 01.0669-.10907zm6.4937.43812c-.0181 0-.0329.005-.0443.0151s-.0171.023-.0171.0387.006.0287.0171.0387c.0114.0101.0261.0151.0443.0151.0181 0 .0329-.005.0443-.0151.0114-.01.0171-.023.0171-.0387s-.006-.0286-.0171-.0387c-.0114-.0101-.0262-.0151-.0443-.0151zm-2.7935.0158c-.0403 0-.0757.01-.10632.0289-.0306.019-.0542.0462-.0706.0814-.0162.035-.0243.0759-.0243.12274v.0236c0 .0746.0181.13233.0542.17324.0361.0409.0855.0614.14831.0614.0381 0 .0719-.007.1014-.021.0298-.014.0528-.0337.0692-.0591.0164-.0256.0254-.055.0269-.0883h-.11454c-.00079.0271-.008.0469-.0223.0594-.014.0125-.0342.0187-.0607.0187-.0313 0-.0534-.0109-.0663-.0328-.0127-.0219-.019-.0583-.019-.10929v-.0338c.00053-.047.008-.0813.021-.1027.0133-.0214.0344-.0322.063-.0322.0282 0 .0492.006.063.019.0138.0127.0211.0335.022.0626h.11486c-.005-.0536-.0248-.0956-.0601-.126-.0352-.0306-.0818-.0459-.13978-.0459zm2.1407.0414v.0883h-.0453v.0768h.0453v.17622c0 .0365.009.0638.0272.0817.0181.0179.0463.0269.0843.0269.0217 0 .0425-.003.0624-.01v-.0791c-.007.001-.0166.002-.0276.002-.0142 0-.0237-.003-.0285-.008-.005-.005-.007-.0146-.007-.0279v-.16243h.0584v-.0768h-.0584v-.0883zm-1.3649.0817c-.0453 0-.0826.0107-.1119.0322-.0291.0214-.0437.0493-.0437.0837h.11059c0-.0258.0131-.0387.0394-.0387.0282 0 .0423.0163.0423.0489v.0187h-.0341c-.0543 0-.0956.01-.12405.0296-.0284.0197-.0427.0488-.0427.0873 0 .0306.0117.0561.0351.0764.0234.0201.0519.0302.0853.0302.0365 0 .065-.0128.0853-.0384.003.014.007.0246.0105.0318h.11058v-.006c-.01-.0173-.0147-.0422-.0151-.0748v-.15718c-.00053-.0385-.0141-.0688-.0403-.0909s-.062-.0331-.10733-.0331zm.7797 0c-.0346 0-.0625.0131-.0837.0394l-.003-.0328h-.10335v.4916h.11058v-.16572c.021.0238.0478.0358.0804.0358.0422 0 .0757-.0164.10042-.0492.0249-.033.0374-.0771.0374-.13226v-.005c0-.0564-.0121-.10075-.0364-.13291-.0243-.0324-.0583-.0486-.10208-.0486zm1.8988 0c-.0348 0-.0651.007-.0909.0223-.0258.0149-.0456.0362-.0594.064-.0138.0276-.0207.0591-.0207.0945l.00026.0187c.002.0519.0189.093.0496.12339.0306.0302.0712.0453.12177.0453.0525 0 .0941-.0162.12469-.0486.0308-.0326.0463-.0765.0463-.13189v-.004c0-.0567-.0153-.10143-.0459-.13425-.0306-.033-.0725-.0495-.12567-.0495zm.80666 0c-.0431 0-.0769.0161-.10144.0482l-.004-.0417h-.10372v.35507h.1106v-.25069c.0105-.0171.0266-.0256.0482-.0256.019 0 .0321.004.0394.0128.007.008.0109.0215.0109.0394v.22411h.11092v-.22871c-.00053-.0444-.0102-.0777-.0285-.0998-.0181-.0221-.0457-.0331-.0827-.0331zm.68979 0c-.0435 0-.0788.0106-.10567.0318-.0269.021-.0404.0478-.0404.0804 0 .0184.005.0347.0141.0489.009.0142.0231.0264.041.0364s.0407.0178.0683.0239c.0276.006.0463.012.0561.0177.01.006.0148.0132.0148.0226 0 .01-.004.0178-.0114.0239-.007.006-.0187.009-.0338.009-.0164 0-.0299-.004-.0404-.0112-.0105-.008-.016-.0197-.0164-.0361h-.10336c0 .0208.007.0405.02.0594.0133.0188.0319.0337.0558.0446.0238.0109.051.0164.0814.0164.0457 0 .0829-.0102.11157-.0305.0289-.0204.0433-.0467.0433-.0791 0-.0475-.0267-.0804-.0801-.0988-.016-.005-.0346-.0102-.0558-.0141-.021-.004-.0363-.009-.0459-.0151-.01-.006-.0145-.0141-.0145-.0239 0-.01.004-.0176.0118-.0239.008-.007.0176-.01.0292-.01.03 0 .045.0142.045.0427h.11091c0-.0346-.0142-.0625-.0426-.0837s-.0661-.0318-.1129-.0318zm-2.2122.007v.35507h.11094v-.35507zm-1.2103.0788c.0367 0 .0551.0315.0551.0945v.0118c-.001.0608-.0193.0912-.0545.0912-.0258 0-.0435-.01-.0531-.0295v-.13982c.009-.0188.0263-.0282.0525-.0282zm1.9261 0c.0407 0 .061.0318.061.0955v.0111c-.00079.0606-.021.0909-.0604.0909-.0201 0-.0353-.008-.0456-.023-.0103-.0153-.0155-.0394-.0155-.0722l.00027-.02c.003-.0549.0231-.0824.06-.0824zm-2.6739.11847h.0322v.0568c-.004.007-.0105.0141-.0197.02-.009.006-.0204.009-.0342.009-.0105 0-.0191-.003-.0259-.009-.007-.006-.0102-.0146-.0102-.0246 0-.0346.0192-.0518.0577-.0518z"/>
</svg>
