<svg xmlns="http://www.w3.org/2000/svg" viewBox="0 0 100 100"><defs/><path fill="#3073FF" d="M0 0h100v100H0z"/><g fill="#FFF"><g transform="matrix(.38631 0 0 .38631 6.1476 38.54)"><path fill-rule="evenodd" d="M77.9244 29.7364c0 1.662-.5941 3.087-1.7828 4.274-1.1885 1.1876-2.615 1.781-4.2787 1.781H63.59v5.9128c0 1.6624-.5944 3.087-1.7828 4.2744-1.1884 1.1872-2.615 1.7809-4.2791 1.7809-1.7114 0-3.1616-.5937-4.35-1.781-1.1884-1.1873-1.7828-2.612-1.7828-4.2743V17.5546c0-4.9867 1.7708-9.249 5.3128-12.7873 3.542-3.5381 7.809-5.3072 12.801-5.3072h2.3537c1.6638 0 3.0902.5936 4.2787 1.781 1.1887 1.1872 1.7828 2.612 1.7828 4.2743 0 1.6622-.5941 3.087-1.7828 4.2742-1.1885 1.1873-2.615 1.781-4.2787 1.781h-2.2823c-1.6641 0-3.0902.5936-4.279 1.7809-1.1884 1.1873-1.7828 2.5884-1.7828 4.203v6.1266h8.344c1.6639 0 3.0903.5936 4.2788 1.7809 1.1887 1.1875 1.7828 2.612 1.7828 4.2744m38.8603.9974c0 3.7992-1.094 7.266-3.28 10.4007-2.188 3.1345-5.088 5.3427-8.701 6.625v6.0554c0 1.662-.594 3.0869-1.7828 4.274-1.1887 1.1876-2.6149 1.7813-4.279 1.7813s-3.0903-.5937-4.279-1.7812c-1.1885-1.1872-1.783-2.6121-1.783-4.2741v-6.0554c-3.6132-1.2823-6.5371-3.4905-8.7717-6.625-2.2345-3.1346-3.3516-6.6015-3.3516-10.4007v-13.108c0-1.6622.594-3.087 1.7828-4.2743 1.1885-1.1873 2.6149-1.781 4.2788-1.781 1.664 0 3.0906.5937 4.279 1.781 1.1884 1.1873 1.7828 2.612 1.7828 4.2743v13.108c0 1.6147.5944 3.0156 1.7829 4.2028 1.1887 1.1875 2.5912 1.7809 4.2077 1.7809 1.6164 0 3.0072-.5818 4.172-1.7453 1.1651-1.1635 1.7471-2.5764 1.7471-4.2384v-13.108c0-1.6622.594-3.087 1.783-4.2743 1.188-1.1873 2.615-1.781 4.279-1.781 1.664 0 3.102.5937 4.314 1.781 1.213 1.1873 1.819 2.612 1.819 4.2743v13.108m38.648 10.9704c0 1.6624-.594 3.087-1.783 4.2744-1.188 1.1872-2.614 1.7809-4.279 1.7809h-11.695c-4.992 0-9.271-1.769-12.837-5.307-3.566-3.5382-5.349-7.8006-5.349-12.7873 0-4.9868 1.772-9.2373 5.314-12.7517 3.541-3.5145 7.809-5.2717 12.8-5.2717h11.696c1.664 0 3.102.5937 4.315 1.781 1.212 1.1873 1.818 2.612 1.818 4.2743 0 1.6622-.594 3.087-1.783 4.2743-1.188 1.1873-2.614 1.7809-4.279 1.7809h-11.695c-1.664 0-3.091.5818-4.279 1.7453-1.189 1.1635-1.783 2.5528-1.783 4.1676 0 1.6147.594 3.0156 1.783 4.2028 1.188 1.1875 2.591 1.7812 4.207 1.7812h11.696c1.664 0 3.102.5934 4.315 1.7809 1.212 1.1872 1.818 2.612 1.818 4.274m39.072 0c0 1.6625-.594 3.087-1.783 4.2745-1.189 1.1872-2.615 1.7809-4.279 1.7809h-12.052c-4.945 0-9.2-1.769-12.765-5.307-3.566-3.5382-5.349-7.8006-5.349-12.7873 0-4.9868 1.771-9.2373 5.313-12.7517 3.542-3.5145 7.785-5.2717 12.73-5.2717 4.992 0 9.271 1.7572 12.837 5.2717 3.565 3.5144 5.348 7.7649 5.348 12.7517v12.039m-12.123-12.039c0-1.6148-.583-3.0041-1.748-4.1676s-2.579-1.7453-4.243-1.7453c-1.664 0-3.079.5818-4.243 1.7453-1.165 1.1635-1.747 2.5528-1.747 4.1676 0 1.662.582 3.0749 1.747 4.2384 1.164 1.1639 2.555 1.7456 4.172 1.7456h5.99l.072-5.984m41.148 12.039c0 1.6624-.594 3.087-1.783 4.2744-1.188 1.1872-2.614 1.7809-4.279 1.7809h-1.497c-4.992 0-9.271-1.769-12.837-5.307-3.566-3.5382-5.348-7.8006-5.348-12.7873V5.5154c0-1.6623.606-3.087 1.818-4.2743 1.213-1.1874 2.651-1.781 4.315-1.781 1.664 0 3.09.5936 4.279 1.781 1.188 1.1872 1.782 2.612 1.782 4.2743v6.0552h7.488c1.665 0 3.091.5936 4.279 1.7809 1.189 1.1873 1.783 2.612 1.783 4.2743s-.594 3.087-1.783 4.2743c-1.188 1.1873-2.614 1.781-4.279 1.781h-7.559v5.984c0 1.6148.594 3.0157 1.783 4.2029 1.189 1.1875 2.591 1.7812 4.208 1.7812h1.568c1.665 0 3.091.5934 4.279 1.7809 1.189 1.1872 1.783 2.612 1.783 4.274zM49.2425 14.2336c.967-3.2256 1.3745-6.5945 1.3745-6.5945.131-.9068-.4987-1.5019-1.3988-1.3274 0 0-3.264.6044-5.7655 1.2274-2.5016.623-5.0028 1.5474-5.0028 1.5474s2.7349 1.591 5.0735 4.1938c2.3382 2.6028 3.5419 6.2703 3.5419 6.2703s1.2105-2.0914 2.1772-5.317zm-44.3503 0C3.9252 11.008 3.518 7.639 3.518 7.639c-.131-.9068.4986-1.5019 1.3987-1.3274 0 0 3.264.6044 5.7655 1.2274 2.5014.623 5.0027 1.5474 5.0027 1.5474s-2.735 1.591-5.0732 4.1938c-2.3383 2.6028-3.5422 6.2703-3.5422 6.2703s-1.2103-2.0914-2.1773-5.317zm40.5297 26.699c0 5.084-1.8055 9.4177-5.417 13.0008-3.6108 3.583-7.9612 5.3747-13.051 5.3747h-5.962c-1.6965 0-3.1628-.6054-4.3988-1.816-1.2361-1.2103-1.8541-2.663-1.8541-4.3576 0-1.695.6059-3.1475 1.8177-4.358 1.2118-1.2104 2.666-1.8155 4.3625-1.8155h5.962c1.6965 0 3.1386-.5934 4.326-1.7796 1.1878-1.1861 1.7815-2.6024 1.7815-4.2487V28.513c0-1.6947-.5937-3.1352-1.7814-4.3215-1.1875-1.1863-2.6053-1.7794-4.2534-1.7794-1.6965 0-3.1506.6052-4.3624 1.8157-1.2118 1.2106-1.8177 2.6388-1.8177 4.2852 0 1.2104.533 2.566 1.5995 4.0673 1.0664 1.5008 1.5996 2.8568 1.5996 4.0673 0 1.6946-.606 3.1472-1.8177 4.3576-1.2118 1.2105-2.666 1.8159-4.3625 1.8159-2.763 0-5.0896-1.7676-6.98-5.3021-1.5995-2.9537-2.3993-5.9557-2.3993-9.006 0-5.0841 1.8056-9.4298 5.4167-13.0371 3.6112-3.6072 7.9616-5.411 13.051-5.411 5.0899 0 9.4523 1.8038 13.0876 5.411 3.6353 3.6073 5.4532 7.953 5.4532 13.037z"/></g></g></svg>
