<svg xmlns="http://www.w3.org/2000/svg" viewBox="0 0 100 100">
  <defs/>
  <path d="M0 0h100v100H0z"/>
  <path fill="#4cb445" d="M25.007 12.498h12.5v12.5h-12.5z"/>
  <path fill="#57ce8e" d="M37.507 12.498h12.5v12.5h-12.5z"/>
  <path fill="#57d1e9" d="M50.007 12.498h12.5v12.5h-12.5z"/>
  <path fill="#62affd" d="M62.507 12.498h12.5v12.5h-12.5z"/>
  <path fill="#53d417" d="M25.007 24.998h12.5v12.5h-12.5z"/>
  <path fill="#8ddb3a" d="M37.507 24.998h12.5v12.5h-12.5z"/>
  <path fill="#7aca83" d="M50.007 24.998h12.5v12.5h-12.5z"/>
  <path fill="#638ff2" d="M62.507 24.998h12.5v12.5h-12.5z"/>
  <path fill="#b2dc10" d="M25.007 37.498h12.5v12.5h-12.5z"/>
  <path fill="#cebe2d" d="M37.507 37.498h12.5v12.5h-12.5z"/>
  <path fill="#74858f" d="M50.007 37.498h12.5v12.5h-12.5z"/>
  <path fill="#7143eb" d="M62.507 37.498h12.5v12.5h-12.5z"/>
  <path fill="#d3b807" d="M25.007 49.998h12.5v12.5h-12.5z"/>
  <path fill="#da9a43" d="M37.507 49.998h12.5v12.5h-12.5z"/>
  <path fill="#ac4b98" d="M50.007 49.998h12.5v12.5h-12.5z"/>
  <path fill="#8007ea" d="M62.507 49.998h12.5v12.5h-12.5z"/>
  <path fill="#fff" d="M29.55 85.81c-.54.544-1.32 1.208-3.059 1.208-1.92 0-4.199-1.148-4.199-4.592 0-2.417 1.98-4.411 4.199-4.411s2.76.362 4.019 1.33l2.219-2.116c-1.44-1.208-3.779-2.235-6.298-2.235-2.76 0-7.678 1.812-7.678 7.553 0 6.405 5.219 7.553 7.918 7.553 3.119 0 4.798-1.269 5.878-2.477V81.64h-5.998v3.022h2.999zm35.988-7.795v-3.021H55.341V90.1h10.197v-3.022H58.94v-3.02h4.799v-3.022H58.94v-3.022zm-13.196 0v-3.021H42.145V90.1h3.599v-6.043h4.798v-3.021h-4.798v-3.022zm-13.196-3.021h-3.599V90.1h3.599zm39.228 9.789c1.26-.544 2.76-2.176 2.76-4.653 0-3.082-2.1-5.136-5.58-5.136h-7.017V90.1h3.599v-4.834h2.58l2.398 4.834h4.139zm-1.44-3.082c-.36.363-.9.544-1.56.544h-3.298v-4.23h3.299c.66 0 1.2.181 1.56.544.36.362.54.906.54 1.57.06.666-.12 1.21-.54 1.572z"/>
</svg>
