<svg xmlns="http://www.w3.org/2000/svg" viewBox="0 0 100 100"><path fill="#FF4902" d="M0 0h100v100H0z"/><path fill="#FFF" d="M62.165 70.752v-2.646q.806.486 1.602.724.806.237 1.52.237.867 0 1.364-.237.506-.238.506-.724 0-.31-.227-.517-.228-.206-.59-.361-.35-.155-.775-.28-.423-.123-.816-.278-.63-.238-1.116-.507-.476-.279-.806-.64-.32-.362-.497-.838-.165-.475-.165-1.126 0-.89.383-1.53.392-.64 1.033-1.044.651-.413 1.478-.6.837-.196 1.736-.196.703 0 1.427.114.723.103 1.426.31v2.522q-.62-.362-1.333-.537-.703-.187-1.385-.187-.32 0-.61.062-.28.052-.496.166-.217.103-.341.279-.124.165-.124.382 0 .29.186.496.186.207.485.362.3.145.662.269.372.114.734.238.65.227 1.178.496.527.268.9.63.382.362.578.848.207.485.207 1.157 0 .94-.414 1.613-.403.661-1.085 1.085-.672.413-1.56.6-.88.196-1.83.196-1.747 0-3.235-.538zm-1.426-11.824h-5.23v3.638h4.806v2.708h-4.806v5.757h-3.338V56.21h8.568zM48.802 71.031h-3.339V56.21h3.339zm-6.222-.992q-2.17 1.25-5.395 1.25-3.576 0-5.643-1.974-2.057-1.984-2.057-5.457 0-3.493 2.253-5.694 2.253-2.202 5.995-2.202 2.356 0 4.154.651v3.132q-1.715-.992-4.196-.992-2.077 0-3.39 1.354Q33 61.45 33 63.703q0 2.284 1.168 3.535 1.178 1.25 3.173 1.25 1.199 0 1.902-.34v-2.894h-2.967v-2.667h6.305zm49.113-25.711h-3.256v-5.881q0-2.46-1.757-2.46-.847 0-1.395.651t-.548 1.654v6.036h-3.266V33.745h3.266v1.674h.041q1.168-1.933 3.4-1.933 3.515 0 3.515 4.362zm-18.118.258q-2.646 0-4.165-1.478-1.51-1.488-1.51-4.03 0-2.626 1.572-4.104 1.57-1.488 4.248-1.488 2.635 0 4.134 1.488 1.498 1.478 1.498 3.917 0 2.636-1.55 4.166-1.54 1.53-4.227 1.53zm.082-8.599q-1.157 0-1.798.796-.64.796-.64 2.253 0 3.049 2.46 3.049 2.345 0 2.345-3.132 0-2.966-2.367-2.966zM64.17 32.07q-.827 0-1.354-.486-.527-.496-.527-1.209 0-.734.527-1.199.527-.465 1.354-.465.837 0 1.354.465.527.465.527 1.2 0 .743-.527 1.219-.517.475-1.354.475zm1.612 12.258h-3.266V33.745h3.266zm-5.106-.124q-.723.382-2.18.382-3.452 0-3.452-3.586v-4.847h-1.716v-2.408h1.716V31.46l3.255-.93v3.214h2.377v2.408H58.3v4.279q0 1.653 1.313 1.653.517 0 1.064-.3zm-8.537-.258q-1.106.64-3.193.64-2.44 0-3.948-1.477-1.51-1.478-1.51-3.814 0-2.698 1.613-4.248 1.623-1.56 4.33-1.56 1.871 0 2.708.496v2.77q-1.023-.765-2.284-.765-1.405 0-2.232.826-.817.817-.817 2.264 0 1.405.786 2.212.785.796 2.16.796 1.22 0 2.387-.765zm-10.604.382h-3.09v-1.52h-.041q-1.065 1.778-3.153 1.778-1.54 0-2.428-.868-.879-.878-.879-2.335 0-3.08 3.649-3.556l2.873-.382q0-1.736-1.881-1.736-1.892 0-3.597 1.126v-2.46q.682-.351 1.86-.62 1.189-.269 2.16-.269 4.527 0 4.527 4.517zm-3.07-4.3v-.713l-1.922.248q-1.591.207-1.591 1.437 0 .558.382.92.393.351 1.054.351.92 0 1.499-.63.579-.64.579-1.612zm-7.678-.061h-6.904q.165 2.304 2.904 2.304 1.747 0 3.07-.826V43.8q-1.468.785-3.814.785-2.563 0-3.98-1.415-1.415-1.427-1.415-3.97 0-2.635 1.53-4.175 1.529-1.54 3.761-1.54 2.315 0 3.576 1.375 1.272 1.374 1.272 3.73zm-3.029-2.005q0-2.274-1.84-2.274-.785 0-1.364.65-.568.652-.692 1.623zm-7.017 6.366h-3.835l-2.304-3.814q-.259-.434-.497-.775-.237-.34-.485-.579-.238-.248-.507-.372-.258-.134-.568-.134h-.9v5.674H8.308v-14.82H13.6q5.395 0 5.395 4.03 0 .775-.238 1.437-.237.65-.671 1.178-.435.527-1.055.91-.61.382-1.364.599v.041q.33.103.64.341.31.227.6.538.29.31.548.671.269.352.486.693zm-9.095-12.32v4.124h1.447q1.074 0 1.726-.62.661-.63.661-1.56 0-1.944-2.325-1.944z" style="shape-inside:url(#rect1399-7-3);white-space:pre"/></svg>