<svg xmlns="http://www.w3.org/2000/svg" viewBox="0 0 100 100"><path fill="#FFF" d="M0 0h100v100H0z"/><path fill="#007ADD" fill-rule="evenodd" d="M80.353 47.475c.4076-.4644.7678-.9242 1.1849-1.3317.9526-.929 2.071-1.5782 3.3886-1.839.3981-.0805.8152-.0994 1.2228-.0805.7725.0427 1.3507.6872 1.3507 1.4455 0 .7488-.5877 1.384-1.3507 1.455-.564.0521-1.1375.0616-1.692.1801-1.5213.327-2.5971 1.2465-3.289 2.6256-.6067 1.2038-.8105 2.5024-.8153 3.8342-.0094 1.7772 0 3.5545 0 5.3318 0 .8246-.6066 1.4644-1.3886 1.4597-.7867-.0048-1.3792-.6161-1.3792-1.4408V45.5177c0-.6162.436-1.1754 1.0237-1.3223.6446-.1612 1.2702.1042 1.5498.6967.109.2275.1706.4929.1801.7488.0285.526.0095 1.0569.0095 1.5877.0047.0805.0047.1564.0047.2464zm-61.9672-3H22.1062c.5118 0 .929.1659 1.1943.6256.4408.7725-.0095 1.7062-.891 1.8389-.1374.019-.2844.0237-.4265.0237h-3.5972v8.7252c0 .5687.09 1.1137.474 1.5782.3127.3791.7345.5402 1.1942.6113.6873.109 1.3697.0522 2.038-.1564.635-.2038 1.2606.0806 1.474.673.218.602-.0901 1.1944-.6778 1.4787-.7962.3886-1.6304.5593-2.5119.6067-2.2844.1137-4.3365-1.545-4.6825-3.8105-.0474-.2938-.0616-.5972-.0616-.8957-.0047-2.82-.0047-5.6399-.0047-8.4598v-.327c-.1043-.0048-.1896-.0142-.2702-.0142-.5213 0-1.0426.0094-1.564-.0048-.853-.0237-1.4028-.6635-1.2749-1.4692.09-.5687.6067-.9953 1.256-1.0142.5118-.0142 1.0284-.0048 1.5403-.0048.3128 0 .3128 0 .3128-.327V40.859c0-.8057.583-1.4218 1.3602-1.4313.7772-.0095 1.3886.6114 1.3933 1.4265.0048 1.1043 0 2.2133 0 3.3176.0048.09.0048.1848.0048.3033zm26.4741 1.981c.2986-.2843.5403-.526.7915-.7535 1.2133-1.109 2.6635-1.564 4.2796-1.5498 1.275.0142 2.474.2986 3.5356 1.038 1.3175.9194 2.0332 2.2227 2.3128 3.7725.09.5024.1374 1.019.1422 1.5308.0142 2.9005.0047 5.7963.0047 8.6967 0 .5546-.3507 1.0806-.8673 1.2702-.5403.199-1.0474.1185-1.4644-.2986-.2939-.289-.4218-.654-.4218-1.071.0047-2.6873.0142-5.3698-.0095-8.057-.0048-.5308-.0806-1.0758-.2086-1.5877-.4028-1.5687-1.526-2.5213-3.1327-2.7062-1.1422-.1327-2.2275.0474-3.1801.7394-1.2654.9194-1.7725 2.2275-1.7773 3.744-.0094 2.6446 0 5.294-.0047 7.9385 0 1.0142-.9858 1.673-1.9242 1.2891-.4976-.2038-.8341-.744-.8341-1.3507V45.5461c0-.5355.2464-.9431.7014-1.2085.4692-.275.9574-.2607 1.417.0284.3935.2512.6304.6161.6399 1.0995.0047.3128 0 .6162 0 .9906zm13.5972 5.8153c.0048-4.1896 3.2513-8.128 8.2181-8.1186 4.6304.0048 8.1802 3.5925 8.1707 8.256-.0095 4.583-3.6304 8.1565-8.2702 8.1612-4.4692 0-8.128-3.7346-8.1186-8.2986zm13.583.218c-.0236-1.6256-.4928-2.981-1.5213-4.128-2.0995-2.346-5.9336-2.256-7.9479.1611-1.6777 2.0143-1.7962 5.5688.1517 7.7584 1.7346 1.9526 4.8531 2.3554 6.9763.8388 1.6162-1.1564 2.2939-2.7914 2.3413-4.6303zm-44.6543.9384c.1138.853.3602 1.6161.7963 2.3033 1.0237 1.6161 2.5118 2.384 4.417 2.3697 1.564-.0095 2.9053-.5782 4.0617-1.6209.6066-.5497 1.4597-.4455 1.8863.2133.308.474.2464 1.0474-.1801 1.474-1.2939 1.2938-2.8342 2.0995-4.6588 2.3222-1.1944.147-2.384.1185-3.545-.2417-2.6447-.8199-4.403-2.5735-5.185-5.2085-.9147-3.0949-.4265-5.9716 1.73-8.4456 1.4644-1.673 3.3601-2.4692 5.5924-2.4313 1.9242.0332 3.6019.6872 4.9526 2.0853 1.1232 1.1612 1.7441 2.5782 2.0285 4.1517.109.5972.1564 1.2038.1848 1.8105.0332.6682-.4882 1.1895-1.1564 1.2227-.0948.0048-.1896 0-.2844 0H27.7223c-.0947-.0047-.1943-.0047-.3365-.0047zm9.2513-2.384c-.0711-.616-.2465-1.1848-.4787-1.7393-1.3839-3.256-4.981-3.3412-6.8294-1.7535-.9716.834-1.545 1.9004-1.8294 3.1327-.0284.1137-.038.2275-.0616.3602h9.199z"/></svg>